<mxfile host="Electron" agent="Mozilla/5.0 (Windows NT 10.0; Win64; x64) AppleWebKit/537.36 (KHTML, like Gecko) draw.io/26.0.4 Chrome/128.0.6613.186 Electron/32.2.5 Safari/537.36" version="26.0.4">
  <diagram name="Page-1" id="OB3GfDz1PCH9vEBd682M">
    <mxGraphModel dx="913" dy="540" grid="1" gridSize="10" guides="1" tooltips="1" connect="1" arrows="1" fold="1" page="1" pageScale="1" pageWidth="827" pageHeight="1169" math="0" shadow="0">
      <root>
        <mxCell id="0" />
        <mxCell id="1" parent="0" />
        <mxCell id="M3HSTlWogL4F1peU0tRn-13" value="" style="whiteSpace=wrap;html=1;aspect=fixed;fillColor=#f5f5f5;fontColor=#333333;strokeColor=#666666;" vertex="1" parent="1">
          <mxGeometry x="280" y="325" width="300" height="300" as="geometry" />
        </mxCell>
        <mxCell id="M3HSTlWogL4F1peU0tRn-17" style="edgeStyle=orthogonalEdgeStyle;rounded=0;orthogonalLoop=1;jettySize=auto;html=1;" edge="1" parent="1" source="M3HSTlWogL4F1peU0tRn-6" target="M3HSTlWogL4F1peU0tRn-16">
          <mxGeometry relative="1" as="geometry" />
        </mxCell>
        <mxCell id="M3HSTlWogL4F1peU0tRn-19" style="edgeStyle=orthogonalEdgeStyle;rounded=0;orthogonalLoop=1;jettySize=auto;html=1;" edge="1" parent="1" source="M3HSTlWogL4F1peU0tRn-6" target="M3HSTlWogL4F1peU0tRn-15">
          <mxGeometry relative="1" as="geometry" />
        </mxCell>
        <mxCell id="M3HSTlWogL4F1peU0tRn-6" value="Museum &lt;br&gt;Mitarbeiter&lt;div&gt;&lt;br&gt;&lt;/div&gt;" style="shape=umlActor;verticalLabelPosition=bottom;verticalAlign=top;html=1;outlineConnect=0;" vertex="1" parent="1">
          <mxGeometry x="220" y="350" width="30" height="60" as="geometry" />
        </mxCell>
        <mxCell id="M3HSTlWogL4F1peU0tRn-32" style="edgeStyle=orthogonalEdgeStyle;rounded=0;orthogonalLoop=1;jettySize=auto;html=1;entryX=0;entryY=0.5;entryDx=0;entryDy=0;" edge="1" parent="1" source="M3HSTlWogL4F1peU0tRn-7" target="M3HSTlWogL4F1peU0tRn-31">
          <mxGeometry relative="1" as="geometry" />
        </mxCell>
        <mxCell id="M3HSTlWogL4F1peU0tRn-7" value="Besucher" style="shape=umlActor;verticalLabelPosition=bottom;verticalAlign=top;html=1;outlineConnect=0;" vertex="1" parent="1">
          <mxGeometry x="220" y="540" width="30" height="60" as="geometry" />
        </mxCell>
        <mxCell id="M3HSTlWogL4F1peU0tRn-27" style="edgeStyle=orthogonalEdgeStyle;rounded=0;orthogonalLoop=1;jettySize=auto;html=1;" edge="1" parent="1" source="M3HSTlWogL4F1peU0tRn-8" target="M3HSTlWogL4F1peU0tRn-25">
          <mxGeometry relative="1" as="geometry" />
        </mxCell>
        <mxCell id="M3HSTlWogL4F1peU0tRn-28" style="edgeStyle=orthogonalEdgeStyle;rounded=0;orthogonalLoop=1;jettySize=auto;html=1;entryX=1;entryY=0.5;entryDx=0;entryDy=0;" edge="1" parent="1" source="M3HSTlWogL4F1peU0tRn-8" target="M3HSTlWogL4F1peU0tRn-24">
          <mxGeometry relative="1" as="geometry" />
        </mxCell>
        <mxCell id="M3HSTlWogL4F1peU0tRn-29" style="edgeStyle=orthogonalEdgeStyle;rounded=0;orthogonalLoop=1;jettySize=auto;html=1;entryX=1;entryY=0.5;entryDx=0;entryDy=0;" edge="1" parent="1" source="M3HSTlWogL4F1peU0tRn-8" target="M3HSTlWogL4F1peU0tRn-26">
          <mxGeometry relative="1" as="geometry" />
        </mxCell>
        <mxCell id="M3HSTlWogL4F1peU0tRn-8" value="Eventagentur&amp;nbsp;&lt;br&gt;Mitarbeiter&lt;div&gt;&lt;br&gt;&lt;/div&gt;" style="shape=umlActor;verticalLabelPosition=bottom;verticalAlign=top;html=1;outlineConnect=0;" vertex="1" parent="1">
          <mxGeometry x="610" y="380" width="30" height="60" as="geometry" />
        </mxCell>
        <mxCell id="M3HSTlWogL4F1peU0tRn-22" style="edgeStyle=orthogonalEdgeStyle;rounded=0;orthogonalLoop=1;jettySize=auto;html=1;entryX=1;entryY=0.5;entryDx=0;entryDy=0;" edge="1" parent="1" source="M3HSTlWogL4F1peU0tRn-9" target="M3HSTlWogL4F1peU0tRn-21">
          <mxGeometry relative="1" as="geometry" />
        </mxCell>
        <mxCell id="M3HSTlWogL4F1peU0tRn-23" style="edgeStyle=orthogonalEdgeStyle;rounded=0;orthogonalLoop=1;jettySize=auto;html=1;" edge="1" parent="1" source="M3HSTlWogL4F1peU0tRn-9" target="M3HSTlWogL4F1peU0tRn-20">
          <mxGeometry relative="1" as="geometry" />
        </mxCell>
        <mxCell id="M3HSTlWogL4F1peU0tRn-9" value="Administrator" style="shape=umlActor;verticalLabelPosition=bottom;verticalAlign=top;html=1;outlineConnect=0;" vertex="1" parent="1">
          <mxGeometry x="600" y="525" width="30" height="60" as="geometry" />
        </mxCell>
        <mxCell id="M3HSTlWogL4F1peU0tRn-15" value="Licht stoppen" style="ellipse;whiteSpace=wrap;html=1;" vertex="1" parent="1">
          <mxGeometry x="320" y="390" width="80" height="50" as="geometry" />
        </mxCell>
        <mxCell id="M3HSTlWogL4F1peU0tRn-16" value="Licht starten" style="ellipse;whiteSpace=wrap;html=1;" vertex="1" parent="1">
          <mxGeometry x="320" y="330" width="80" height="50" as="geometry" />
        </mxCell>
        <mxCell id="M3HSTlWogL4F1peU0tRn-20" value="Zugriffsrechte&amp;nbsp;&lt;br&gt;verwalten" style="ellipse;whiteSpace=wrap;html=1;" vertex="1" parent="1">
          <mxGeometry x="460" y="500" width="90" height="50" as="geometry" />
        </mxCell>
        <mxCell id="M3HSTlWogL4F1peU0tRn-21" value="Benutzer&amp;nbsp;&lt;br&gt;verwalten" style="ellipse;whiteSpace=wrap;html=1;" vertex="1" parent="1">
          <mxGeometry x="470" y="559.5" width="80" height="50" as="geometry" />
        </mxCell>
        <mxCell id="M3HSTlWogL4F1peU0tRn-24" value="Licht stoppen" style="ellipse;whiteSpace=wrap;html=1;" vertex="1" parent="1">
          <mxGeometry x="460" y="385" width="80" height="50" as="geometry" />
        </mxCell>
        <mxCell id="M3HSTlWogL4F1peU0tRn-25" value="Licht starten" style="ellipse;whiteSpace=wrap;html=1;" vertex="1" parent="1">
          <mxGeometry x="460" y="330" width="80" height="50" as="geometry" />
        </mxCell>
        <mxCell id="M3HSTlWogL4F1peU0tRn-26" value="Lichts&lt;span style=&quot;background-color: transparent; color: light-dark(rgb(0, 0, 0), rgb(255, 255, 255));&quot;&gt;equenz&lt;br&gt;erstellen&amp;nbsp;&lt;/span&gt;" style="ellipse;whiteSpace=wrap;html=1;" vertex="1" parent="1">
          <mxGeometry x="460" y="440" width="80" height="50" as="geometry" />
        </mxCell>
        <mxCell id="M3HSTlWogL4F1peU0tRn-31" value="Lichtshow&amp;nbsp;&lt;br&gt;schauen" style="ellipse;whiteSpace=wrap;html=1;" vertex="1" parent="1">
          <mxGeometry x="320" y="545" width="80" height="50" as="geometry" />
        </mxCell>
        <mxCell id="M3HSTlWogL4F1peU0tRn-35" value="" style="endArrow=none;html=1;rounded=0;exitX=0.5;exitY=0;exitDx=0;exitDy=0;entryX=0.5;entryY=0;entryDx=0;entryDy=0;" edge="1" parent="1" source="M3HSTlWogL4F1peU0tRn-16" target="M3HSTlWogL4F1peU0tRn-25">
          <mxGeometry width="50" height="50" relative="1" as="geometry">
            <mxPoint x="470" y="470" as="sourcePoint" />
            <mxPoint x="500" y="300" as="targetPoint" />
            <Array as="points">
              <mxPoint x="360" y="300" />
              <mxPoint x="430" y="300" />
              <mxPoint x="500" y="300" />
            </Array>
          </mxGeometry>
        </mxCell>
        <mxCell id="M3HSTlWogL4F1peU0tRn-36" value="" style="endArrow=none;html=1;rounded=0;exitX=1;exitY=0.5;exitDx=0;exitDy=0;entryX=0;entryY=0.5;entryDx=0;entryDy=0;" edge="1" parent="1" source="M3HSTlWogL4F1peU0tRn-15" target="M3HSTlWogL4F1peU0tRn-24">
          <mxGeometry width="50" height="50" relative="1" as="geometry">
            <mxPoint x="470" y="450" as="sourcePoint" />
            <mxPoint x="520" y="400" as="targetPoint" />
            <Array as="points" />
          </mxGeometry>
        </mxCell>
        <mxCell id="M3HSTlWogL4F1peU0tRn-37" value="" style="endArrow=none;dashed=1;html=1;dashPattern=1 3;strokeWidth=2;rounded=0;exitX=0.5;exitY=1;exitDx=0;exitDy=0;entryX=0.5;entryY=0;entryDx=0;entryDy=0;" edge="1" parent="1" source="M3HSTlWogL4F1peU0tRn-15" target="M3HSTlWogL4F1peU0tRn-31">
          <mxGeometry width="50" height="50" relative="1" as="geometry">
            <mxPoint x="470" y="450" as="sourcePoint" />
            <mxPoint x="520" y="400" as="targetPoint" />
          </mxGeometry>
        </mxCell>
        <mxCell id="M3HSTlWogL4F1peU0tRn-38" value="&amp;lt;&amp;lt;include&amp;gt;&amp;gt;" style="text;html=1;align=center;verticalAlign=middle;whiteSpace=wrap;rounded=0;" vertex="1" parent="1">
          <mxGeometry x="300" y="470" width="40" height="10" as="geometry" />
        </mxCell>
        <mxCell id="M3HSTlWogL4F1peU0tRn-43" value="" style="endArrow=none;dashed=1;html=1;dashPattern=1 3;strokeWidth=2;rounded=0;exitX=0.5;exitY=0;exitDx=0;exitDy=0;entryX=0;entryY=0.5;entryDx=0;entryDy=0;" edge="1" parent="1" source="M3HSTlWogL4F1peU0tRn-31" target="M3HSTlWogL4F1peU0tRn-24">
          <mxGeometry width="50" height="50" relative="1" as="geometry">
            <mxPoint x="340" y="480" as="sourcePoint" />
            <mxPoint x="390" y="430" as="targetPoint" />
          </mxGeometry>
        </mxCell>
      </root>
    </mxGraphModel>
  </diagram>
</mxfile>
